<?xml version="1.0" encoding="utf-8" standalone="no"?>
<!DOCTYPE svg PUBLIC "-//W3C//DTD SVG 1.1//EN"
  "http://www.w3.org/Graphics/SVG/1.1/DTD/svg11.dtd">
<!-- Created with matplotlib (https://matplotlib.org/) -->
<svg height="319.385pt" version="1.1" viewBox="0 0 446.834 319.385" width="446.834pt" xmlns="http://www.w3.org/2000/svg" xmlns:xlink="http://www.w3.org/1999/xlink">
 <metadata>
  <rdf:RDF xmlns:cc="http://creativecommons.org/ns#" xmlns:dc="http://purl.org/dc/elements/1.1/" xmlns:rdf="http://www.w3.org/1999/02/22-rdf-syntax-ns#">
   <cc:Work>
    <dc:type rdf:resource="http://purl.org/dc/dcmitype/StillImage"/>
    <dc:date>2022-06-30T09:42:10.376135</dc:date>
    <dc:format>image/svg+xml</dc:format>
    <dc:creator>
     <cc:Agent>
      <dc:title>Matplotlib v3.3.4, https://matplotlib.org/</dc:title>
     </cc:Agent>
    </dc:creator>
   </cc:Work>
  </rdf:RDF>
 </metadata>
 <defs>
  <style type="text/css">*{stroke-linecap:butt;stroke-linejoin:round;}</style>
 </defs>
 <g id="figure_1">
  <g id="patch_1">
   <path d="M 0 319.385 
L 446.834 319.385 
L 446.834 0 
L 0 0 
z
" style="fill:#ffffff;"/>
  </g>
  <g id="axes_1">
   <g id="patch_2">
    <path d="M 73.352 273.312 
L 430.472 273.312 
L 430.472 7.2 
L 73.352 7.2 
z
" style="fill:#ffffff;"/>
   </g>
   <g id="matplotlib.axis_1">
    <g id="xtick_1">
     <g id="line2d_1">
      <defs>
       <path d="M 0 0 
L 0 3.5 
" id="mf0858f8156" style="stroke:#000000;stroke-width:0.8;"/>
      </defs>
      <g>
       <use style="stroke:#000000;stroke-width:0.8;" x="73.352" xlink:href="#mf0858f8156" y="273.312"/>
      </g>
     </g>
     <g id="text_1">
      <!-- 1 -->
      <g transform="translate(68.771 291.25375)scale(0.144 -0.144)">
       <defs>
        <path d="M 12.40625 8.296875 
L 28.515625 8.296875 
L 28.515625 63.921875 
L 10.984375 60.40625 
L 10.984375 69.390625 
L 28.421875 72.90625 
L 38.28125 72.90625 
L 38.28125 8.296875 
L 54.390625 8.296875 
L 54.390625 0 
L 12.40625 0 
z
" id="DejaVuSans-49"/>
       </defs>
       <use xlink:href="#DejaVuSans-49"/>
      </g>
     </g>
    </g>
    <g id="xtick_2">
     <g id="line2d_2">
      <g>
       <use style="stroke:#000000;stroke-width:0.8;" x="132.872" xlink:href="#mf0858f8156" y="273.312"/>
      </g>
     </g>
     <g id="text_2">
      <!-- 3 -->
      <g transform="translate(128.291 291.25375)scale(0.144 -0.144)">
       <defs>
        <path d="M 40.578125 39.3125 
Q 47.65625 37.796875 51.625 33 
Q 55.609375 28.21875 55.609375 21.1875 
Q 55.609375 10.40625 48.1875 4.484375 
Q 40.765625 -1.421875 27.09375 -1.421875 
Q 22.515625 -1.421875 17.65625 -0.515625 
Q 12.796875 0.390625 7.625 2.203125 
L 7.625 11.71875 
Q 11.71875 9.328125 16.59375 8.109375 
Q 21.484375 6.890625 26.8125 6.890625 
Q 36.078125 6.890625 40.9375 10.546875 
Q 45.796875 14.203125 45.796875 21.1875 
Q 45.796875 27.640625 41.28125 31.265625 
Q 36.765625 34.90625 28.71875 34.90625 
L 20.21875 34.90625 
L 20.21875 43.015625 
L 29.109375 43.015625 
Q 36.375 43.015625 40.234375 45.921875 
Q 44.09375 48.828125 44.09375 54.296875 
Q 44.09375 59.90625 40.109375 62.90625 
Q 36.140625 65.921875 28.71875 65.921875 
Q 24.65625 65.921875 20.015625 65.03125 
Q 15.375 64.15625 9.8125 62.3125 
L 9.8125 71.09375 
Q 15.4375 72.65625 20.34375 73.4375 
Q 25.25 74.21875 29.59375 74.21875 
Q 40.828125 74.21875 47.359375 69.109375 
Q 53.90625 64.015625 53.90625 55.328125 
Q 53.90625 49.265625 50.4375 45.09375 
Q 46.96875 40.921875 40.578125 39.3125 
z
" id="DejaVuSans-51"/>
       </defs>
       <use xlink:href="#DejaVuSans-51"/>
      </g>
     </g>
    </g>
    <g id="xtick_3">
     <g id="line2d_3">
      <g>
       <use style="stroke:#000000;stroke-width:0.8;" x="192.392" xlink:href="#mf0858f8156" y="273.312"/>
      </g>
     </g>
     <g id="text_3">
      <!-- 5 -->
      <g transform="translate(187.811 291.25375)scale(0.144 -0.144)">
       <defs>
        <path d="M 10.796875 72.90625 
L 49.515625 72.90625 
L 49.515625 64.59375 
L 19.828125 64.59375 
L 19.828125 46.734375 
Q 21.96875 47.46875 24.109375 47.828125 
Q 26.265625 48.1875 28.421875 48.1875 
Q 40.625 48.1875 47.75 41.5 
Q 54.890625 34.8125 54.890625 23.390625 
Q 54.890625 11.625 47.5625 5.09375 
Q 40.234375 -1.421875 26.90625 -1.421875 
Q 22.3125 -1.421875 17.546875 -0.640625 
Q 12.796875 0.140625 7.71875 1.703125 
L 7.71875 11.625 
Q 12.109375 9.234375 16.796875 8.0625 
Q 21.484375 6.890625 26.703125 6.890625 
Q 35.15625 6.890625 40.078125 11.328125 
Q 45.015625 15.765625 45.015625 23.390625 
Q 45.015625 31 40.078125 35.4375 
Q 35.15625 39.890625 26.703125 39.890625 
Q 22.75 39.890625 18.8125 39.015625 
Q 14.890625 38.140625 10.796875 36.28125 
z
" id="DejaVuSans-53"/>
       </defs>
       <use xlink:href="#DejaVuSans-53"/>
      </g>
     </g>
    </g>
    <g id="xtick_4">
     <g id="line2d_4">
      <g>
       <use style="stroke:#000000;stroke-width:0.8;" x="251.912" xlink:href="#mf0858f8156" y="273.312"/>
      </g>
     </g>
     <g id="text_4">
      <!-- 7 -->
      <g transform="translate(247.331 291.25375)scale(0.144 -0.144)">
       <defs>
        <path d="M 8.203125 72.90625 
L 55.078125 72.90625 
L 55.078125 68.703125 
L 28.609375 0 
L 18.3125 0 
L 43.21875 64.59375 
L 8.203125 64.59375 
z
" id="DejaVuSans-55"/>
       </defs>
       <use xlink:href="#DejaVuSans-55"/>
      </g>
     </g>
    </g>
    <g id="xtick_5">
     <g id="line2d_5">
      <g>
       <use style="stroke:#000000;stroke-width:0.8;" x="311.432" xlink:href="#mf0858f8156" y="273.312"/>
      </g>
     </g>
     <g id="text_5">
      <!-- 9 -->
      <g transform="translate(306.851 291.25375)scale(0.144 -0.144)">
       <defs>
        <path d="M 10.984375 1.515625 
L 10.984375 10.5 
Q 14.703125 8.734375 18.5 7.8125 
Q 22.3125 6.890625 25.984375 6.890625 
Q 35.75 6.890625 40.890625 13.453125 
Q 46.046875 20.015625 46.78125 33.40625 
Q 43.953125 29.203125 39.59375 26.953125 
Q 35.25 24.703125 29.984375 24.703125 
Q 19.046875 24.703125 12.671875 31.3125 
Q 6.296875 37.9375 6.296875 49.421875 
Q 6.296875 60.640625 12.9375 67.421875 
Q 19.578125 74.21875 30.609375 74.21875 
Q 43.265625 74.21875 49.921875 64.515625 
Q 56.59375 54.828125 56.59375 36.375 
Q 56.59375 19.140625 48.40625 8.859375 
Q 40.234375 -1.421875 26.421875 -1.421875 
Q 22.703125 -1.421875 18.890625 -0.6875 
Q 15.09375 0.046875 10.984375 1.515625 
z
M 30.609375 32.421875 
Q 37.25 32.421875 41.125 36.953125 
Q 45.015625 41.5 45.015625 49.421875 
Q 45.015625 57.28125 41.125 61.84375 
Q 37.25 66.40625 30.609375 66.40625 
Q 23.96875 66.40625 20.09375 61.84375 
Q 16.21875 57.28125 16.21875 49.421875 
Q 16.21875 41.5 20.09375 36.953125 
Q 23.96875 32.421875 30.609375 32.421875 
z
" id="DejaVuSans-57"/>
       </defs>
       <use xlink:href="#DejaVuSans-57"/>
      </g>
     </g>
    </g>
    <g id="xtick_6">
     <g id="line2d_6">
      <g>
       <use style="stroke:#000000;stroke-width:0.8;" x="370.952" xlink:href="#mf0858f8156" y="273.312"/>
      </g>
     </g>
     <g id="text_6">
      <!-- 11 -->
      <g transform="translate(361.79 291.25375)scale(0.144 -0.144)">
       <use xlink:href="#DejaVuSans-49"/>
       <use x="63.623047" xlink:href="#DejaVuSans-49"/>
      </g>
     </g>
    </g>
    <g id="xtick_7">
     <g id="line2d_7">
      <g>
       <use style="stroke:#000000;stroke-width:0.8;" x="430.472" xlink:href="#mf0858f8156" y="273.312"/>
      </g>
     </g>
     <g id="text_7">
      <!-- 13 -->
      <g transform="translate(421.31 291.25375)scale(0.144 -0.144)">
       <use xlink:href="#DejaVuSans-49"/>
       <use x="63.623047" xlink:href="#DejaVuSans-51"/>
      </g>
     </g>
    </g>
    <g id="text_8">
     <!-- $\mathregular{pH}$ -->
     <g transform="translate(241.904 309.161)scale(0.144 -0.144)">
      <defs>
       <path d="M 18.109375 8.203125 
L 18.109375 -20.796875 
L 9.078125 -20.796875 
L 9.078125 54.6875 
L 18.109375 54.6875 
L 18.109375 46.390625 
Q 20.953125 51.265625 25.265625 53.625 
Q 29.59375 56 35.59375 56 
Q 45.5625 56 51.78125 48.09375 
Q 58.015625 40.1875 58.015625 27.296875 
Q 58.015625 14.40625 51.78125 6.484375 
Q 45.5625 -1.421875 35.59375 -1.421875 
Q 29.59375 -1.421875 25.265625 0.953125 
Q 20.953125 3.328125 18.109375 8.203125 
z
M 48.6875 27.296875 
Q 48.6875 37.203125 44.609375 42.84375 
Q 40.53125 48.484375 33.40625 48.484375 
Q 26.265625 48.484375 22.1875 42.84375 
Q 18.109375 37.203125 18.109375 27.296875 
Q 18.109375 17.390625 22.1875 11.75 
Q 26.265625 6.109375 33.40625 6.109375 
Q 40.53125 6.109375 44.609375 11.75 
Q 48.6875 17.390625 48.6875 27.296875 
z
" id="DejaVuSans-112"/>
       <path d="M 9.8125 72.90625 
L 19.671875 72.90625 
L 19.671875 43.015625 
L 55.515625 43.015625 
L 55.515625 72.90625 
L 65.375 72.90625 
L 65.375 0 
L 55.515625 0 
L 55.515625 34.71875 
L 19.671875 34.71875 
L 19.671875 0 
L 9.8125 0 
z
" id="DejaVuSans-72"/>
      </defs>
      <use transform="translate(0 0.09375)" xlink:href="#DejaVuSans-112"/>
      <use transform="translate(63.476562 0.09375)" xlink:href="#DejaVuSans-72"/>
     </g>
    </g>
   </g>
   <g id="matplotlib.axis_2">
    <g id="ytick_1">
     <g id="line2d_8">
      <defs>
       <path d="M 0 0 
L -3.5 0 
" id="mfca130c58e" style="stroke:#000000;stroke-width:0.8;"/>
      </defs>
      <g>
       <use style="stroke:#000000;stroke-width:0.8;" x="73.352" xlink:href="#mfca130c58e" y="245.554212"/>
      </g>
     </g>
     <g id="text_9">
      <!-- $\mathdefault{10^{-17}}$ -->
      <g transform="translate(26.176 251.025087)scale(0.144 -0.144)">
       <defs>
        <path d="M 31.78125 66.40625 
Q 24.171875 66.40625 20.328125 58.90625 
Q 16.5 51.421875 16.5 36.375 
Q 16.5 21.390625 20.328125 13.890625 
Q 24.171875 6.390625 31.78125 6.390625 
Q 39.453125 6.390625 43.28125 13.890625 
Q 47.125 21.390625 47.125 36.375 
Q 47.125 51.421875 43.28125 58.90625 
Q 39.453125 66.40625 31.78125 66.40625 
z
M 31.78125 74.21875 
Q 44.046875 74.21875 50.515625 64.515625 
Q 56.984375 54.828125 56.984375 36.375 
Q 56.984375 17.96875 50.515625 8.265625 
Q 44.046875 -1.421875 31.78125 -1.421875 
Q 19.53125 -1.421875 13.0625 8.265625 
Q 6.59375 17.96875 6.59375 36.375 
Q 6.59375 54.828125 13.0625 64.515625 
Q 19.53125 74.21875 31.78125 74.21875 
z
" id="DejaVuSans-48"/>
        <path d="M 10.59375 35.5 
L 73.1875 35.5 
L 73.1875 27.203125 
L 10.59375 27.203125 
z
" id="DejaVuSans-8722"/>
       </defs>
       <use transform="translate(0 0.684375)" xlink:href="#DejaVuSans-49"/>
       <use transform="translate(63.623047 0.684375)" xlink:href="#DejaVuSans-48"/>
       <use transform="translate(128.203125 38.965625)scale(0.7)" xlink:href="#DejaVuSans-8722"/>
       <use transform="translate(186.855469 38.965625)scale(0.7)" xlink:href="#DejaVuSans-49"/>
       <use transform="translate(231.391602 38.965625)scale(0.7)" xlink:href="#DejaVuSans-55"/>
      </g>
     </g>
    </g>
    <g id="ytick_2">
     <g id="line2d_9">
      <g>
       <use style="stroke:#000000;stroke-width:0.8;" x="73.352" xlink:href="#mfca130c58e" y="207.71449"/>
      </g>
     </g>
     <g id="text_10">
      <!-- $\mathdefault{10^{-14}}$ -->
      <g transform="translate(26.176 213.185365)scale(0.144 -0.144)">
       <defs>
        <path d="M 37.796875 64.3125 
L 12.890625 25.390625 
L 37.796875 25.390625 
z
M 35.203125 72.90625 
L 47.609375 72.90625 
L 47.609375 25.390625 
L 58.015625 25.390625 
L 58.015625 17.1875 
L 47.609375 17.1875 
L 47.609375 0 
L 37.796875 0 
L 37.796875 17.1875 
L 4.890625 17.1875 
L 4.890625 26.703125 
z
" id="DejaVuSans-52"/>
       </defs>
       <use transform="translate(0 0.684375)" xlink:href="#DejaVuSans-49"/>
       <use transform="translate(63.623047 0.684375)" xlink:href="#DejaVuSans-48"/>
       <use transform="translate(128.203125 38.965625)scale(0.7)" xlink:href="#DejaVuSans-8722"/>
       <use transform="translate(186.855469 38.965625)scale(0.7)" xlink:href="#DejaVuSans-49"/>
       <use transform="translate(231.391602 38.965625)scale(0.7)" xlink:href="#DejaVuSans-52"/>
      </g>
     </g>
    </g>
    <g id="ytick_3">
     <g id="line2d_10">
      <g>
       <use style="stroke:#000000;stroke-width:0.8;" x="73.352" xlink:href="#mfca130c58e" y="169.874768"/>
      </g>
     </g>
     <g id="text_11">
      <!-- $\mathdefault{10^{-11}}$ -->
      <g transform="translate(26.176 175.345643)scale(0.144 -0.144)">
       <use transform="translate(0 0.684375)" xlink:href="#DejaVuSans-49"/>
       <use transform="translate(63.623047 0.684375)" xlink:href="#DejaVuSans-48"/>
       <use transform="translate(128.203125 38.965625)scale(0.7)" xlink:href="#DejaVuSans-8722"/>
       <use transform="translate(186.855469 38.965625)scale(0.7)" xlink:href="#DejaVuSans-49"/>
       <use transform="translate(231.391602 38.965625)scale(0.7)" xlink:href="#DejaVuSans-49"/>
      </g>
     </g>
    </g>
    <g id="ytick_4">
     <g id="line2d_11">
      <g>
       <use style="stroke:#000000;stroke-width:0.8;" x="73.352" xlink:href="#mfca130c58e" y="132.035046"/>
      </g>
     </g>
     <g id="text_12">
      <!-- $\mathdefault{10^{-8}}$ -->
      <g transform="translate(32.512 137.505921)scale(0.144 -0.144)">
       <defs>
        <path d="M 31.78125 34.625 
Q 24.75 34.625 20.71875 30.859375 
Q 16.703125 27.09375 16.703125 20.515625 
Q 16.703125 13.921875 20.71875 10.15625 
Q 24.75 6.390625 31.78125 6.390625 
Q 38.8125 6.390625 42.859375 10.171875 
Q 46.921875 13.96875 46.921875 20.515625 
Q 46.921875 27.09375 42.890625 30.859375 
Q 38.875 34.625 31.78125 34.625 
z
M 21.921875 38.8125 
Q 15.578125 40.375 12.03125 44.71875 
Q 8.5 49.078125 8.5 55.328125 
Q 8.5 64.0625 14.71875 69.140625 
Q 20.953125 74.21875 31.78125 74.21875 
Q 42.671875 74.21875 48.875 69.140625 
Q 55.078125 64.0625 55.078125 55.328125 
Q 55.078125 49.078125 51.53125 44.71875 
Q 48 40.375 41.703125 38.8125 
Q 48.828125 37.15625 52.796875 32.3125 
Q 56.78125 27.484375 56.78125 20.515625 
Q 56.78125 9.90625 50.3125 4.234375 
Q 43.84375 -1.421875 31.78125 -1.421875 
Q 19.734375 -1.421875 13.25 4.234375 
Q 6.78125 9.90625 6.78125 20.515625 
Q 6.78125 27.484375 10.78125 32.3125 
Q 14.796875 37.15625 21.921875 38.8125 
z
M 18.3125 54.390625 
Q 18.3125 48.734375 21.84375 45.5625 
Q 25.390625 42.390625 31.78125 42.390625 
Q 38.140625 42.390625 41.71875 45.5625 
Q 45.3125 48.734375 45.3125 54.390625 
Q 45.3125 60.0625 41.71875 63.234375 
Q 38.140625 66.40625 31.78125 66.40625 
Q 25.390625 66.40625 21.84375 63.234375 
Q 18.3125 60.0625 18.3125 54.390625 
z
" id="DejaVuSans-56"/>
       </defs>
       <use transform="translate(0 0.765625)" xlink:href="#DejaVuSans-49"/>
       <use transform="translate(63.623047 0.765625)" xlink:href="#DejaVuSans-48"/>
       <use transform="translate(128.203125 39.046875)scale(0.7)" xlink:href="#DejaVuSans-8722"/>
       <use transform="translate(186.855469 39.046875)scale(0.7)" xlink:href="#DejaVuSans-56"/>
      </g>
     </g>
    </g>
    <g id="ytick_5">
     <g id="line2d_12">
      <g>
       <use style="stroke:#000000;stroke-width:0.8;" x="73.352" xlink:href="#mfca130c58e" y="94.195324"/>
      </g>
     </g>
     <g id="text_13">
      <!-- $\mathdefault{10^{-5}}$ -->
      <g transform="translate(32.512 99.666199)scale(0.144 -0.144)">
       <use transform="translate(0 0.684375)" xlink:href="#DejaVuSans-49"/>
       <use transform="translate(63.623047 0.684375)" xlink:href="#DejaVuSans-48"/>
       <use transform="translate(128.203125 38.965625)scale(0.7)" xlink:href="#DejaVuSans-8722"/>
       <use transform="translate(186.855469 38.965625)scale(0.7)" xlink:href="#DejaVuSans-53"/>
      </g>
     </g>
    </g>
    <g id="ytick_6">
     <g id="line2d_13">
      <g>
       <use style="stroke:#000000;stroke-width:0.8;" x="73.352" xlink:href="#mfca130c58e" y="56.355602"/>
      </g>
     </g>
     <g id="text_14">
      <!-- $\mathdefault{10^{-2}}$ -->
      <g transform="translate(32.512 61.826477)scale(0.144 -0.144)">
       <defs>
        <path d="M 19.1875 8.296875 
L 53.609375 8.296875 
L 53.609375 0 
L 7.328125 0 
L 7.328125 8.296875 
Q 12.9375 14.109375 22.625 23.890625 
Q 32.328125 33.6875 34.8125 36.53125 
Q 39.546875 41.84375 41.421875 45.53125 
Q 43.3125 49.21875 43.3125 52.78125 
Q 43.3125 58.59375 39.234375 62.25 
Q 35.15625 65.921875 28.609375 65.921875 
Q 23.96875 65.921875 18.8125 64.3125 
Q 13.671875 62.703125 7.8125 59.421875 
L 7.8125 69.390625 
Q 13.765625 71.78125 18.9375 73 
Q 24.125 74.21875 28.421875 74.21875 
Q 39.75 74.21875 46.484375 68.546875 
Q 53.21875 62.890625 53.21875 53.421875 
Q 53.21875 48.921875 51.53125 44.890625 
Q 49.859375 40.875 45.40625 35.40625 
Q 44.1875 33.984375 37.640625 27.21875 
Q 31.109375 20.453125 19.1875 8.296875 
z
" id="DejaVuSans-50"/>
       </defs>
       <use transform="translate(0 0.765625)" xlink:href="#DejaVuSans-49"/>
       <use transform="translate(63.623047 0.765625)" xlink:href="#DejaVuSans-48"/>
       <use transform="translate(128.203125 39.046875)scale(0.7)" xlink:href="#DejaVuSans-8722"/>
       <use transform="translate(186.855469 39.046875)scale(0.7)" xlink:href="#DejaVuSans-50"/>
      </g>
     </g>
    </g>
    <g id="ytick_7">
     <g id="line2d_14">
      <g>
       <use style="stroke:#000000;stroke-width:0.8;" x="73.352" xlink:href="#mfca130c58e" y="18.51588"/>
      </g>
     </g>
     <g id="text_15">
      <!-- $\mathdefault{10^{1}}$ -->
      <g transform="translate(41.008 23.986755)scale(0.144 -0.144)">
       <use transform="translate(0 0.684375)" xlink:href="#DejaVuSans-49"/>
       <use transform="translate(63.623047 0.684375)" xlink:href="#DejaVuSans-48"/>
       <use transform="translate(128.203125 38.965625)scale(0.7)" xlink:href="#DejaVuSans-49"/>
      </g>
     </g>
    </g>
    <g id="text_16">
     <!-- $c\ [\mathrm{mol}\!\cdot\!\mathrm{L}^{-1}]$ -->
     <g transform="translate(19.18125 180.072)rotate(-90)scale(0.144 -0.144)">
      <defs>
       <path d="M 53.609375 52.59375 
L 51.8125 43.703125 
Q 48.578125 46.046875 44.9375 47.21875 
Q 41.3125 48.390625 37.40625 48.390625 
Q 33.109375 48.390625 29.21875 46.875 
Q 25.34375 45.359375 22.703125 42.578125 
Q 18.5 38.328125 16.203125 32.609375 
Q 13.921875 26.90625 13.921875 20.796875 
Q 13.921875 13.421875 17.609375 9.8125 
Q 21.296875 6.203125 28.8125 6.203125 
Q 32.515625 6.203125 36.6875 7.328125 
Q 40.875 8.453125 45.40625 10.6875 
L 43.703125 1.8125 
Q 39.796875 0.203125 35.671875 -0.609375 
Q 31.546875 -1.421875 27.203125 -1.421875 
Q 16.3125 -1.421875 10.453125 4.015625 
Q 4.59375 9.46875 4.59375 19.578125 
Q 4.59375 28.078125 7.640625 35.234375 
Q 10.6875 42.390625 16.703125 48.09375 
Q 20.796875 52 26.3125 54 
Q 31.84375 56 38.375 56 
Q 42.1875 56 45.9375 55.140625 
Q 49.703125 54.296875 53.609375 52.59375 
z
" id="DejaVuSans-Oblique-99"/>
       <path d="M 8.59375 75.984375 
L 29.296875 75.984375 
L 29.296875 69 
L 17.578125 69 
L 17.578125 -6.203125 
L 29.296875 -6.203125 
L 29.296875 -13.1875 
L 8.59375 -13.1875 
z
" id="DejaVuSans-91"/>
       <path d="M 52 44.1875 
Q 55.375 50.25 60.0625 53.125 
Q 64.75 56 71.09375 56 
Q 79.640625 56 84.28125 50.015625 
Q 88.921875 44.046875 88.921875 33.015625 
L 88.921875 0 
L 79.890625 0 
L 79.890625 32.71875 
Q 79.890625 40.578125 77.09375 44.375 
Q 74.3125 48.1875 68.609375 48.1875 
Q 61.625 48.1875 57.5625 43.546875 
Q 53.515625 38.921875 53.515625 30.90625 
L 53.515625 0 
L 44.484375 0 
L 44.484375 32.71875 
Q 44.484375 40.625 41.703125 44.40625 
Q 38.921875 48.1875 33.109375 48.1875 
Q 26.21875 48.1875 22.15625 43.53125 
Q 18.109375 38.875 18.109375 30.90625 
L 18.109375 0 
L 9.078125 0 
L 9.078125 54.6875 
L 18.109375 54.6875 
L 18.109375 46.1875 
Q 21.1875 51.21875 25.484375 53.609375 
Q 29.78125 56 35.6875 56 
Q 41.65625 56 45.828125 52.96875 
Q 50 49.953125 52 44.1875 
z
" id="DejaVuSans-109"/>
       <path d="M 30.609375 48.390625 
Q 23.390625 48.390625 19.1875 42.75 
Q 14.984375 37.109375 14.984375 27.296875 
Q 14.984375 17.484375 19.15625 11.84375 
Q 23.34375 6.203125 30.609375 6.203125 
Q 37.796875 6.203125 41.984375 11.859375 
Q 46.1875 17.53125 46.1875 27.296875 
Q 46.1875 37.015625 41.984375 42.703125 
Q 37.796875 48.390625 30.609375 48.390625 
z
M 30.609375 56 
Q 42.328125 56 49.015625 48.375 
Q 55.71875 40.765625 55.71875 27.296875 
Q 55.71875 13.875 49.015625 6.21875 
Q 42.328125 -1.421875 30.609375 -1.421875 
Q 18.84375 -1.421875 12.171875 6.21875 
Q 5.515625 13.875 5.515625 27.296875 
Q 5.515625 40.765625 12.171875 48.375 
Q 18.84375 56 30.609375 56 
z
" id="DejaVuSans-111"/>
       <path d="M 9.421875 75.984375 
L 18.40625 75.984375 
L 18.40625 0 
L 9.421875 0 
z
" id="DejaVuSans-108"/>
       <path d="M 10.6875 40.921875 
L 21 40.921875 
L 21 28.515625 
L 10.6875 28.515625 
z
" id="DejaVuSans-8901"/>
       <path d="M 9.8125 72.90625 
L 19.671875 72.90625 
L 19.671875 8.296875 
L 55.171875 8.296875 
L 55.171875 0 
L 9.8125 0 
z
" id="DejaVuSans-76"/>
       <path d="M 30.421875 75.984375 
L 30.421875 -13.1875 
L 9.71875 -13.1875 
L 9.71875 -6.203125 
L 21.390625 -6.203125 
L 21.390625 69 
L 9.71875 69 
L 9.71875 75.984375 
z
" id="DejaVuSans-93"/>
      </defs>
      <use transform="translate(0 0.684375)" xlink:href="#DejaVuSans-Oblique-99"/>
      <use transform="translate(87.450847 0.684375)" xlink:href="#DejaVuSans-91"/>
      <use transform="translate(126.464519 0.684375)" xlink:href="#DejaVuSans-109"/>
      <use transform="translate(223.876628 0.684375)" xlink:href="#DejaVuSans-111"/>
      <use transform="translate(285.058269 0.684375)" xlink:href="#DejaVuSans-108"/>
      <use transform="translate(316.088218 0.684375)" xlink:href="#DejaVuSans-8901"/>
      <use transform="translate(351.122073 0.684375)" xlink:href="#DejaVuSans-76"/>
      <use transform="translate(407.791995 38.965625)scale(0.7)" xlink:href="#DejaVuSans-8722"/>
      <use transform="translate(466.444338 38.965625)scale(0.7)" xlink:href="#DejaVuSans-49"/>
      <use transform="translate(513.714846 0.684375)" xlink:href="#DejaVuSans-93"/>
     </g>
    </g>
   </g>
   <g id="line2d_15">
    <path clip-path="url(#p4cd1c0df34)" d="M 73.352 43.742361 
L 76.328 45.003685 
L 79.304 46.26501 
L 82.28 47.526334 
L 85.256 48.787658 
L 88.232 50.048982 
L 91.208 51.310306 
L 94.184 52.57163 
L 97.16 53.832954 
L 100.136 55.094278 
L 103.112 56.355602 
L 106.088 57.616926 
L 109.064 58.87825 
L 112.04 60.139574 
L 115.016 61.400898 
L 117.992 62.662222 
L 120.968 63.923546 
L 123.944 65.184871 
L 126.92 66.446195 
L 129.896 67.707519 
L 132.872 68.968843 
L 135.848 70.230167 
L 138.824 71.491491 
L 141.8 72.752815 
L 144.776 74.014139 
L 147.752 75.275463 
L 150.728 76.536787 
L 153.704 77.798111 
L 156.68 79.059435 
L 159.656 80.320759 
L 162.632 81.582083 
L 165.608 82.843407 
L 168.584 84.104732 
L 171.56 85.366056 
L 174.536 86.62738 
L 177.512 87.888704 
L 180.488 89.150028 
L 183.464 90.411352 
L 186.44 91.672676 
L 189.416 92.934 
L 192.392 94.195324 
L 195.368 95.456648 
L 198.344 96.717972 
L 201.32 97.979296 
L 204.296 99.24062 
L 207.272 100.501944 
L 210.248 101.763268 
L 213.224 103.024592 
L 216.2 104.285917 
L 219.176 105.547241 
L 222.152 106.808565 
L 225.128 108.069889 
L 228.104 109.331213 
L 231.08 110.592537 
L 234.056 111.853861 
L 237.032 113.115185 
L 240.008 114.376509 
L 242.984 115.637833 
L 245.96 116.899157 
L 248.936 118.160481 
L 251.912 119.421805 
L 254.888 120.683129 
L 257.864 121.944453 
L 260.84 123.205778 
L 263.816 124.467102 
L 266.792 125.728426 
L 269.768 126.98975 
L 272.744 128.251074 
L 275.72 129.512398 
L 278.696 130.773722 
L 281.672 132.035046 
L 284.648 133.29637 
L 287.624 134.557694 
L 290.6 135.819018 
L 293.576 137.080342 
L 296.552 138.341666 
L 299.528 139.60299 
L 302.504 140.864314 
L 305.48 142.125639 
L 308.456 143.386963 
L 311.432 144.648287 
L 314.408 145.909611 
L 317.384 147.170935 
L 320.36 148.432259 
L 323.336 149.693583 
L 326.312 150.954907 
L 329.288 152.216231 
L 332.264 153.477555 
L 335.24 154.738879 
L 338.216 156.000203 
L 341.192 157.261527 
L 344.168 158.522851 
L 347.144 159.784175 
L 350.12 161.0455 
L 353.096 162.306824 
L 356.072 163.568148 
L 359.048 164.829472 
L 362.024 166.090796 
L 365 167.35212 
L 367.976 168.613444 
L 370.952 169.874768 
L 373.928 171.136092 
L 376.904 172.397416 
L 379.88 173.65874 
L 382.856 174.920064 
L 385.832 176.181388 
L 388.808 177.442712 
L 391.784 178.704036 
L 394.76 179.965361 
L 397.736 181.226685 
L 400.712 182.488009 
L 403.688 183.749333 
L 406.664 185.010657 
L 409.64 186.271981 
L 412.616 187.533305 
L 415.592 188.794629 
L 418.568 190.055953 
L 421.544 191.317277 
L 424.52 192.578601 
L 427.496 193.839925 
L 430.472 195.101249 
" style="fill:none;stroke:#1f77b4;stroke-linecap:square;stroke-width:1.5;"/>
   </g>
   <g id="line2d_16">
    <path clip-path="url(#p4cd1c0df34)" d="M 73.352 195.101249 
L 76.328 193.839925 
L 79.304 192.578601 
L 82.28 191.317277 
L 85.256 190.055953 
L 88.232 188.794629 
L 91.208 187.533305 
L 94.184 186.271981 
L 97.16 185.010657 
L 100.136 183.749333 
L 103.112 182.488009 
L 106.088 181.226685 
L 109.064 179.965361 
L 112.04 178.704036 
L 115.016 177.442712 
L 117.992 176.181388 
L 120.968 174.920064 
L 123.944 173.65874 
L 126.92 172.397416 
L 129.896 171.136092 
L 132.872 169.874768 
L 135.848 168.613444 
L 138.824 167.35212 
L 141.8 166.090796 
L 144.776 164.829472 
L 147.752 163.568148 
L 150.728 162.306824 
L 153.704 161.0455 
L 156.68 159.784175 
L 159.656 158.522851 
L 162.632 157.261527 
L 165.608 156.000203 
L 168.584 154.738879 
L 171.56 153.477555 
L 174.536 152.216231 
L 177.512 150.954907 
L 180.488 149.693583 
L 183.464 148.432259 
L 186.44 147.170935 
L 189.416 145.909611 
L 192.392 144.648287 
L 195.368 143.386963 
L 198.344 142.125639 
L 201.32 140.864314 
L 204.296 139.60299 
L 207.272 138.341666 
L 210.248 137.080342 
L 213.224 135.819018 
L 216.2 134.557694 
L 219.176 133.29637 
L 222.152 132.035046 
L 225.128 130.773722 
L 228.104 129.512398 
L 231.08 128.251074 
L 234.056 126.98975 
L 237.032 125.728426 
L 240.008 124.467102 
L 242.984 123.205778 
L 245.96 121.944453 
L 248.936 120.683129 
L 251.912 119.421805 
L 254.888 118.160481 
L 257.864 116.899157 
L 260.84 115.637833 
L 263.816 114.376509 
L 266.792 113.115185 
L 269.768 111.853861 
L 272.744 110.592537 
L 275.72 109.331213 
L 278.696 108.069889 
L 281.672 106.808565 
L 284.648 105.547241 
L 287.624 104.285917 
L 290.6 103.024592 
L 293.576 101.763268 
L 296.552 100.501944 
L 299.528 99.24062 
L 302.504 97.979296 
L 305.48 96.717972 
L 308.456 95.456648 
L 311.432 94.195324 
L 314.408 92.934 
L 317.384 91.672676 
L 320.36 90.411352 
L 323.336 89.150028 
L 326.312 87.888704 
L 329.288 86.62738 
L 332.264 85.366056 
L 335.24 84.104732 
L 338.216 82.843407 
L 341.192 81.582083 
L 344.168 80.320759 
L 347.144 79.059435 
L 350.12 77.798111 
L 353.096 76.536787 
L 356.072 75.275463 
L 359.048 74.014139 
L 362.024 72.752815 
L 365 71.491491 
L 367.976 70.230167 
L 370.952 68.968843 
L 373.928 67.707519 
L 376.904 66.446195 
L 379.88 65.184871 
L 382.856 63.923546 
L 385.832 62.662222 
L 388.808 61.400898 
L 391.784 60.139574 
L 394.76 58.87825 
L 397.736 57.616926 
L 400.712 56.355602 
L 403.688 55.094278 
L 406.664 53.832954 
L 409.64 52.57163 
L 412.616 51.310306 
L 415.592 50.048982 
L 418.568 48.787658 
L 421.544 47.526334 
L 424.52 46.26501 
L 427.496 45.003685 
L 430.472 43.742361 
" style="fill:none;stroke:#ff7f0e;stroke-linecap:square;stroke-width:1.5;"/>
   </g>
   <g id="line2d_17">
    <path clip-path="url(#p4cd1c0df34)" d="M 73.352 34.926085 
L 76.328 34.926085 
L 79.304 34.926085 
L 82.28 34.926085 
L 85.256 34.926085 
L 88.232 34.926085 
L 91.208 34.926085 
L 94.184 34.926085 
L 97.16 34.926085 
L 100.136 34.926085 
L 103.112 34.926085 
L 106.088 34.926085 
L 109.064 34.926085 
L 112.04 34.926085 
L 115.016 34.926085 
L 117.992 34.926085 
L 120.968 34.926085 
L 123.944 34.926085 
L 126.92 34.926085 
L 129.896 34.926085 
L 132.872 34.926085 
L 135.848 34.926085 
L 138.824 34.926085 
L 141.8 34.926085 
L 144.776 34.926085 
L 147.752 34.926085 
L 150.728 34.926085 
L 153.704 34.926085 
L 156.68 34.926085 
L 159.656 34.926085 
L 162.632 34.926085 
L 165.608 34.926085 
L 168.584 34.926085 
L 171.56 34.926085 
L 174.536 34.926085 
L 177.512 34.926085 
L 180.488 34.926085 
L 183.464 34.926085 
L 186.44 34.926085 
L 189.416 34.926085 
L 192.392 34.926085 
L 195.368 34.926085 
L 198.344 34.926085 
L 201.32 34.926085 
L 204.296 34.926085 
L 207.272 34.926085 
L 210.248 34.926085 
L 213.224 34.926085 
L 216.2 34.926085 
L 219.176 34.926085 
L 222.152 34.926085 
L 225.128 34.926085 
L 228.104 34.926085 
L 231.08 34.926085 
L 234.056 34.926085 
L 237.032 34.926085 
L 240.008 34.926085 
L 242.984 34.926085 
L 245.96 34.926085 
L 248.936 34.926085 
L 251.912 34.926085 
L 254.888 34.926085 
L 257.864 34.926085 
L 260.84 34.926085 
L 263.816 34.926085 
L 266.792 34.926085 
L 269.768 34.926085 
L 272.744 34.926085 
L 275.72 34.926085 
L 278.696 34.926085 
L 281.672 34.926085 
L 284.648 34.926085 
L 287.624 34.926085 
L 290.6 34.926085 
L 293.576 34.926085 
L 296.552 34.926085 
L 299.528 34.926085 
L 302.504 34.926085 
L 305.48 34.926085 
L 308.456 34.926085 
L 311.432 34.926085 
L 314.408 34.926085 
L 317.384 34.926085 
L 320.36 34.926085 
L 323.336 34.926085 
L 326.312 34.926085 
L 329.288 34.926085 
L 332.264 34.926085 
L 335.24 34.926085 
L 338.216 34.926085 
L 341.192 34.926085 
L 344.168 34.926085 
L 347.144 34.926085 
L 350.12 34.926085 
L 353.096 34.926085 
L 356.072 34.926085 
L 359.048 34.926085 
L 362.024 34.926085 
L 365 34.926085 
L 367.976 34.926085 
L 370.952 34.926085 
L 373.928 34.926085 
L 376.904 34.926085 
L 379.88 34.926085 
L 382.856 34.926085 
L 385.832 34.926085 
L 388.808 34.926085 
L 391.784 34.926085 
L 394.76 34.926085 
L 397.736 34.926085 
L 400.712 34.926085 
L 403.688 34.926085 
L 406.664 34.926085 
L 409.64 34.926085 
L 412.616 34.926085 
L 415.592 34.926085 
L 418.568 34.926085 
L 421.544 34.926085 
L 424.52 34.926085 
L 427.496 34.926085 
L 430.472 34.926085 
" style="fill:none;stroke:#2ca02c;stroke-linecap:square;stroke-width:1.5;"/>
   </g>
   <g id="line2d_18">
    <path clip-path="url(#p4cd1c0df34)" d="M 73.352 255.037468 
L 76.328 252.705889 
L 79.304 250.33991 
L 82.28 247.944984 
L 85.256 245.525956 
L 88.232 243.087038 
L 91.208 240.631826 
L 94.184 238.163344 
L 97.16 235.68411 
L 100.136 233.196197 
L 103.112 230.701303 
L 106.088 228.200808 
L 109.064 225.695829 
L 112.04 223.187267 
L 115.016 220.675846 
L 117.992 218.162149 
L 120.968 215.646641 
L 123.944 213.129698 
L 126.92 210.611617 
L 129.896 208.09264 
L 132.872 205.572961 
L 135.848 203.052737 
L 138.824 200.532097 
L 141.8 198.011146 
L 144.776 195.489975 
L 147.752 192.968662 
L 150.728 190.447279 
L 153.704 187.925893 
L 156.68 185.40457 
L 159.656 182.883382 
L 162.632 180.362405 
L 165.608 177.841729 
L 168.584 175.321458 
L 171.56 172.801718 
L 174.536 170.282663 
L 177.512 167.764483 
L 180.488 165.247413 
L 183.464 162.731746 
L 186.44 160.217848 
L 189.416 157.706176 
L 192.392 155.197298 
L 195.368 152.691923 
L 198.344 150.190933 
L 201.32 147.695422 
L 204.296 145.206741 
L 207.272 142.726552 
L 210.248 140.25689 
L 213.224 137.800223 
L 216.2 135.359524 
L 219.176 132.938328 
L 222.152 130.540784 
L 225.128 128.171675 
L 228.104 125.836395 
L 231.08 123.540867 
L 234.056 121.291374 
L 237.032 119.094304 
L 240.008 116.955802 
L 242.984 114.881352 
L 245.96 112.875339 
L 248.936 110.940654 
L 251.912 109.078411 
L 254.888 107.287832 
L 257.864 105.566332 
L 260.84 103.909766 
L 263.816 102.312817 
L 266.792 100.769429 
L 269.768 99.27323 
L 272.744 97.817898 
L 275.72 96.397434 
L 278.696 95.006343 
L 281.672 93.639733 
L 284.648 92.293347 
L 287.624 90.963548 
L 290.6 89.647275 
L 293.576 88.341982 
L 296.552 87.045573 
L 299.528 85.756339 
L 302.504 84.472894 
L 305.48 83.194127 
L 308.456 81.919148 
L 311.432 80.647258 
L 314.408 79.377909 
L 317.384 78.110686 
L 320.36 76.845281 
L 323.336 75.58148 
L 326.312 74.319153 
L 329.288 73.058248 
L 332.264 71.798787 
L 335.24 70.540868 
L 338.216 69.284669 
L 341.192 68.030458 
L 344.168 66.778606 
L 347.144 65.529604 
L 350.12 64.284088 
L 353.096 63.042867 
L 356.072 61.806961 
L 359.048 60.577642 
L 362.024 59.356491 
L 365 58.145451 
L 367.976 56.946899 
L 370.952 55.763711 
L 373.928 54.599334 
L 376.904 53.457846 
L 379.88 52.343996 
L 382.856 51.26321 
L 385.832 50.221546 
L 388.808 49.22557 
L 391.784 48.282162 
L 394.76 47.398216 
L 397.736 46.580289 
L 400.712 45.834208 
L 403.688 45.164715 
L 406.664 44.575222 
L 409.64 44.067751 
L 412.616 43.643097 
L 415.592 43.301248 
L 418.568 43.042042 
L 421.544 42.866053 
L 424.52 42.775724 
L 427.496 42.776863 
L 430.472 42.880804 
" style="fill:none;stroke:#d62728;stroke-linecap:square;stroke-width:1.5;"/>
   </g>
   <g id="line2d_19">
    <path clip-path="url(#p4cd1c0df34)" d="M 73.352 112.255584 
L 76.328 111.185329 
L 79.304 110.080674 
L 82.28 108.947072 
L 85.256 107.789368 
L 88.232 106.611774 
L 91.208 105.417886 
L 94.184 104.210728 
L 97.16 102.992818 
L 100.136 101.766229 
L 103.112 100.53266 
L 106.088 99.293489 
L 109.064 98.049834 
L 112.04 96.802596 
L 115.016 95.552499 
L 117.992 94.300126 
L 120.968 93.045942 
L 123.944 91.790322 
L 126.92 90.533566 
L 129.896 89.275913 
L 132.872 88.017558 
L 135.848 86.758658 
L 138.824 85.499342 
L 141.8 84.239715 
L 144.776 82.979868 
L 147.752 81.71988 
L 150.728 80.459821 
L 153.704 79.199758 
L 156.68 77.93976 
L 159.656 76.679895 
L 162.632 75.420243 
L 165.608 74.160891 
L 168.584 72.901944 
L 171.56 71.643528 
L 174.536 70.385797 
L 177.512 69.128941 
L 180.488 67.873195 
L 183.464 66.618852 
L 186.44 65.366279 
L 189.416 64.11593 
L 192.392 62.868376 
L 195.368 61.624325 
L 198.344 60.38466 
L 201.32 59.150473 
L 204.296 57.923116 
L 207.272 56.704251 
L 210.248 55.495913 
L 213.224 54.30057 
L 216.2 53.121195 
L 219.176 51.961323 
L 222.152 50.825103 
L 225.128 49.717318 
L 228.104 48.643363 
L 231.08 47.609158 
L 234.056 46.620989 
L 237.032 45.685243 
L 240.008 44.808066 
L 242.984 43.99494 
L 245.96 43.250251 
L 248.936 42.57689 
L 251.912 41.97597 
L 254.888 41.446716 
L 257.864 40.98654 
L 260.84 40.591298 
L 263.816 40.255673 
L 266.792 39.973609 
L 269.768 39.738734 
L 272.744 39.544726 
L 275.72 39.385586 
L 278.696 39.255819 
L 281.672 39.150533 
L 284.648 39.065472 
L 287.624 38.996997 
L 290.6 38.942048 
L 293.576 38.898078 
L 296.552 38.862994 
L 299.528 38.835084 
L 302.504 38.812963 
L 305.48 38.79552 
L 308.456 38.781865 
L 311.432 38.771299 
L 314.408 38.763275 
L 317.384 38.757376 
L 320.36 38.753294 
L 323.336 38.750817 
L 326.312 38.749814 
L 329.288 38.750234 
L 332.264 38.752097 
L 335.24 38.755502 
L 338.216 38.760627 
L 341.192 38.76774 
L 344.168 38.777212 
L 347.144 38.789534 
L 350.12 38.805342 
L 353.096 38.825445 
L 356.072 38.850863 
L 359.048 38.882868 
L 362.024 38.923041 
L 365 38.973326 
L 367.976 39.036098 
L 370.952 39.114233 
L 373.928 39.21118 
L 376.904 39.331016 
L 379.88 39.47849 
L 382.856 39.659029 
L 385.832 39.878688 
L 388.808 40.144037 
L 391.784 40.461952 
L 394.76 40.83933 
L 397.736 41.282728 
L 400.712 41.797971 
L 403.688 42.389802 
L 406.664 43.061634 
L 409.64 43.815486 
L 412.616 44.652156 
L 415.592 45.571631 
L 418.568 46.57375 
L 421.544 47.659085 
L 424.52 48.830079 
L 427.496 50.092543 
L 430.472 51.457808 
" style="fill:none;stroke:#9467bd;stroke-linecap:square;stroke-width:1.5;"/>
   </g>
   <g id="line2d_20">
    <path clip-path="url(#p4cd1c0df34)" d="M 73.352 33.927359 
L 76.328 34.118428 
L 79.304 34.275098 
L 82.28 34.40282 
L 85.256 34.50644 
L 88.232 34.59017 
L 91.208 34.657606 
L 94.184 34.711772 
L 97.16 34.755186 
L 100.136 34.789922 
L 103.112 34.817676 
L 106.088 34.839829 
L 109.064 34.857498 
L 112.04 34.871584 
L 115.016 34.882811 
L 117.992 34.891762 
L 120.968 34.898903 
L 123.944 34.904607 
L 126.92 34.909175 
L 129.896 34.912846 
L 132.872 34.915815 
L 135.848 34.918239 
L 138.824 34.920247 
L 141.8 34.921944 
L 144.776 34.923421 
L 147.752 34.924757 
L 150.728 34.926022 
L 153.704 34.927284 
L 156.68 34.928609 
L 159.656 34.930069 
L 162.632 34.93174 
L 165.608 34.933712 
L 168.584 34.936089 
L 171.56 34.938997 
L 174.536 34.942591 
L 177.512 34.947058 
L 180.488 34.952637 
L 183.464 34.959618 
L 186.44 34.968369 
L 189.416 34.979344 
L 192.392 34.993114 
L 195.368 35.010388 
L 198.344 35.032046 
L 201.32 35.059183 
L 204.296 35.09315 
L 207.272 35.135609 
L 210.248 35.188595 
L 213.224 35.254576 
L 216.2 35.336525 
L 219.176 35.437977 
L 222.152 35.563082 
L 225.128 35.716621 
L 228.104 35.90399 
L 231.08 36.131109 
L 234.056 36.404264 
L 237.032 36.729843 
L 240.008 37.113989 
L 242.984 37.562187 
L 245.96 38.078822 
L 248.936 38.666785 
L 251.912 39.32719 
L 254.888 40.05926 
L 257.864 40.860407 
L 260.84 41.726489 
L 263.816 42.652189 
L 266.792 43.631448 
L 269.768 44.657898 
L 272.744 45.725214 
L 275.72 46.827398 
L 278.696 47.958955 
L 281.672 49.114993 
L 284.648 50.291256 
L 287.624 51.484105 
L 290.6 52.69048 
L 293.576 53.907835 
L 296.552 55.134074 
L 299.528 56.367488 
L 302.504 57.606692 
L 305.48 58.850572 
L 308.456 60.098242 
L 311.432 61.349 
L 314.408 62.602299 
L 317.384 63.857725 
L 320.36 65.114967 
L 323.336 66.373814 
L 326.312 67.634136 
L 329.288 68.895879 
L 332.264 70.159066 
L 335.24 71.423795 
L 338.216 72.690244 
L 341.192 73.958682 
L 344.168 75.229478 
L 347.144 76.503124 
L 350.12 77.780256 
L 353.096 79.061683 
L 356.072 80.348424 
L 359.048 81.641754 
L 362.024 82.943251 
L 365 84.25486 
L 367.976 85.578956 
L 370.952 86.918415 
L 373.928 88.276686 
L 376.904 89.657846 
L 379.88 91.066644 
L 382.856 92.508507 
L 385.832 93.989491 
L 388.808 95.516164 
L 391.784 97.095403 
L 394.76 98.734105 
L 397.736 100.438826 
L 400.712 102.215393 
L 403.688 104.068548 
L 406.664 106.001704 
L 409.64 108.016881 
L 412.616 110.114875 
L 415.592 112.295674 
L 418.568 114.559117 
L 421.544 116.905776 
L 424.52 119.338094 
L 427.496 121.861882 
L 430.472 124.488471 
" style="fill:none;stroke:#8c564b;stroke-linecap:square;stroke-width:1.5;"/>
   </g>
   <g id="line2d_21">
    <path clip-path="url(#p4cd1c0df34)" d="M 73.352 19.296 
L 76.328 20.748393 
L 79.304 22.166387 
L 82.28 23.555433 
L 85.256 24.920377 
L 88.232 26.265431 
L 91.208 27.594191 
L 94.184 28.909681 
L 97.16 30.214419 
L 100.136 31.510479 
L 103.112 32.799558 
L 106.088 34.083035 
L 109.064 35.362028 
L 112.04 36.637438 
L 115.016 37.909989 
L 117.992 39.180264 
L 120.968 40.448729 
L 123.944 41.715757 
L 126.92 42.981649 
L 129.896 44.246644 
L 132.872 45.510937 
L 135.848 46.774686 
L 138.824 48.038017 
L 141.8 49.301038 
L 144.776 50.56384 
L 147.752 51.826499 
L 150.728 53.089088 
L 153.704 54.351674 
L 156.68 55.614324 
L 159.656 56.877107 
L 162.632 58.140103 
L 165.608 59.403399 
L 168.584 60.6671 
L 171.56 61.931332 
L 174.536 63.19625 
L 177.512 64.462042 
L 180.488 65.728944 
L 183.464 66.997249 
L 186.44 68.267324 
L 189.416 69.539624 
L 192.392 70.814718 
L 195.368 72.093315 
L 198.344 73.376298 
L 201.32 74.664759 
L 204.296 75.96005 
L 207.272 77.263833 
L 210.248 78.578143 
L 213.224 79.905448 
L 216.2 81.248721 
L 219.176 82.611498 
L 222.152 83.997926 
L 225.128 85.412789 
L 228.104 86.861482 
L 231.08 88.349925 
L 234.056 89.884404 
L 237.032 91.471307 
L 240.008 93.116777 
L 242.984 94.826299 
L 245.96 96.604259 
L 248.936 98.453546 
L 251.912 100.375275 
L 254.888 102.368669 
L 257.864 104.43114 
L 260.84 106.558546 
L 263.816 108.74557 
L 266.792 110.986154 
L 269.768 113.273927 
L 272.744 115.602567 
L 275.72 117.966075 
L 278.696 120.358956 
L 281.672 122.776319 
L 284.648 125.213905 
L 287.624 127.668079 
L 290.6 130.135778 
L 293.576 132.614457 
L 296.552 135.10202 
L 299.528 137.596758 
L 302.504 140.097286 
L 305.48 142.60249 
L 308.456 145.111484 
L 311.432 147.623566 
L 314.408 150.13819 
L 317.384 152.654939 
L 320.36 155.173506 
L 323.336 157.693677 
L 326.312 160.215322 
L 329.288 162.738389 
L 332.264 165.262901 
L 335.24 167.788954 
L 338.216 170.316727 
L 341.192 172.846488 
L 344.168 175.378608 
L 347.144 177.913579 
L 350.12 180.452035 
L 353.096 182.994786 
L 356.072 185.542852 
L 359.048 188.097505 
L 362.024 190.660326 
L 365 193.233259 
L 367.976 195.818679 
L 370.952 198.419463 
L 373.928 201.039058 
L 376.904 203.681542 
L 379.88 206.351664 
L 382.856 209.054851 
L 385.832 211.797158 
L 388.808 214.585156 
L 391.784 217.425719 
L 394.76 220.325745 
L 397.736 223.29179 
L 400.712 226.329681 
L 403.688 229.444161 
L 406.664 232.638641 
L 409.64 235.915142 
L 412.616 239.274459 
L 415.592 242.716582 
L 418.568 246.241349 
L 421.544 249.849333 
L 424.52 253.542975 
L 427.496 257.328087 
L 430.472 261.216 
" style="fill:none;stroke:#e377c2;stroke-linecap:square;stroke-width:1.5;"/>
   </g>
   <g id="patch_3">
    <path d="M 73.352 273.312 
L 73.352 7.2 
" style="fill:none;stroke:#000000;stroke-linecap:square;stroke-linejoin:miter;stroke-width:0.8;"/>
   </g>
   <g id="patch_4">
    <path d="M 430.472 273.312 
L 430.472 7.2 
" style="fill:none;stroke:#000000;stroke-linecap:square;stroke-linejoin:miter;stroke-width:0.8;"/>
   </g>
   <g id="patch_5">
    <path d="M 73.352 273.312 
L 430.472 273.312 
" style="fill:none;stroke:#000000;stroke-linecap:square;stroke-linejoin:miter;stroke-width:0.8;"/>
   </g>
   <g id="patch_6">
    <path d="M 73.352 7.2 
L 430.472 7.2 
" style="fill:none;stroke:#000000;stroke-linecap:square;stroke-linejoin:miter;stroke-width:0.8;"/>
   </g>
   <g id="legend_1">
    <g id="patch_7">
     <path d="M 220.277938 267.312 
L 283.546063 267.312 
Q 285.946063 267.312 285.946063 264.912 
L 285.946063 142.81575 
Q 285.946063 140.41575 283.546063 140.41575 
L 220.277938 140.41575 
Q 217.877938 140.41575 217.877938 142.81575 
L 217.877938 264.912 
Q 217.877938 267.312 220.277938 267.312 
z
" style="fill:#ffffff;opacity:0.8;stroke:#cccccc;stroke-linejoin:miter;"/>
    </g>
    <g id="line2d_22">
     <path d="M 222.677938 150.133875 
L 246.677938 150.133875 
" style="fill:none;stroke:#1f77b4;stroke-linecap:square;stroke-width:1.5;"/>
    </g>
    <g id="line2d_23"/>
    <g id="text_17">
     <!-- H -->
     <g transform="translate(256.277938 154.333875)scale(0.12 -0.12)">
      <use xlink:href="#DejaVuSans-72"/>
     </g>
    </g>
    <g id="line2d_24">
     <path d="M 222.677938 167.747625 
L 246.677938 167.747625 
" style="fill:none;stroke:#ff7f0e;stroke-linecap:square;stroke-width:1.5;"/>
    </g>
    <g id="line2d_25"/>
    <g id="text_18">
     <!-- OH -->
     <g transform="translate(256.277938 171.947625)scale(0.12 -0.12)">
      <defs>
       <path d="M 39.40625 66.21875 
Q 28.65625 66.21875 22.328125 58.203125 
Q 16.015625 50.203125 16.015625 36.375 
Q 16.015625 22.609375 22.328125 14.59375 
Q 28.65625 6.59375 39.40625 6.59375 
Q 50.140625 6.59375 56.421875 14.59375 
Q 62.703125 22.609375 62.703125 36.375 
Q 62.703125 50.203125 56.421875 58.203125 
Q 50.140625 66.21875 39.40625 66.21875 
z
M 39.40625 74.21875 
Q 54.734375 74.21875 63.90625 63.9375 
Q 73.09375 53.65625 73.09375 36.375 
Q 73.09375 19.140625 63.90625 8.859375 
Q 54.734375 -1.421875 39.40625 -1.421875 
Q 24.03125 -1.421875 14.8125 8.828125 
Q 5.609375 19.09375 5.609375 36.375 
Q 5.609375 53.65625 14.8125 63.9375 
Q 24.03125 74.21875 39.40625 74.21875 
z
" id="DejaVuSans-79"/>
      </defs>
      <use xlink:href="#DejaVuSans-79"/>
      <use x="78.710938" xlink:href="#DejaVuSans-72"/>
     </g>
    </g>
    <g id="line2d_26">
     <path d="M 222.677938 185.361375 
L 246.677938 185.361375 
" style="fill:none;stroke:#2ca02c;stroke-linecap:square;stroke-width:1.5;"/>
    </g>
    <g id="line2d_27"/>
    <g id="text_19">
     <!-- M -->
     <g transform="translate(256.277938 189.561375)scale(0.12 -0.12)">
      <defs>
       <path d="M 9.8125 72.90625 
L 24.515625 72.90625 
L 43.109375 23.296875 
L 61.8125 72.90625 
L 76.515625 72.90625 
L 76.515625 0 
L 66.890625 0 
L 66.890625 64.015625 
L 48.09375 14.015625 
L 38.1875 14.015625 
L 19.390625 64.015625 
L 19.390625 0 
L 9.8125 0 
z
" id="DejaVuSans-77"/>
      </defs>
      <use xlink:href="#DejaVuSans-77"/>
     </g>
    </g>
    <g id="line2d_28">
     <path d="M 222.677938 202.975125 
L 246.677938 202.975125 
" style="fill:none;stroke:#d62728;stroke-linecap:square;stroke-width:1.5;"/>
    </g>
    <g id="line2d_29"/>
    <g id="text_20">
     <!-- A -->
     <g transform="translate(256.277938 207.175125)scale(0.12 -0.12)">
      <defs>
       <path d="M 34.1875 63.1875 
L 20.796875 26.90625 
L 47.609375 26.90625 
z
M 28.609375 72.90625 
L 39.796875 72.90625 
L 67.578125 0 
L 57.328125 0 
L 50.6875 18.703125 
L 17.828125 18.703125 
L 11.1875 0 
L 0.78125 0 
z
" id="DejaVuSans-65"/>
      </defs>
      <use xlink:href="#DejaVuSans-65"/>
     </g>
    </g>
    <g id="line2d_30">
     <path d="M 222.677938 220.588875 
L 246.677938 220.588875 
" style="fill:none;stroke:#9467bd;stroke-linecap:square;stroke-width:1.5;"/>
    </g>
    <g id="line2d_31"/>
    <g id="text_21">
     <!-- HA -->
     <g transform="translate(256.277938 224.788875)scale(0.12 -0.12)">
      <use xlink:href="#DejaVuSans-72"/>
      <use x="75.195312" xlink:href="#DejaVuSans-65"/>
     </g>
    </g>
    <g id="line2d_32">
     <path d="M 222.677938 238.202625 
L 246.677938 238.202625 
" style="fill:none;stroke:#8c564b;stroke-linecap:square;stroke-width:1.5;"/>
    </g>
    <g id="line2d_33"/>
    <g id="text_22">
     <!-- H2A -->
     <g transform="translate(256.277938 242.402625)scale(0.12 -0.12)">
      <use xlink:href="#DejaVuSans-72"/>
      <use x="75.195312" xlink:href="#DejaVuSans-50"/>
      <use x="138.818359" xlink:href="#DejaVuSans-65"/>
     </g>
    </g>
    <g id="line2d_34">
     <path d="M 222.677938 255.816375 
L 246.677938 255.816375 
" style="fill:none;stroke:#e377c2;stroke-linecap:square;stroke-width:1.5;"/>
    </g>
    <g id="line2d_35"/>
    <g id="text_23">
     <!-- H3A -->
     <g transform="translate(256.277938 260.016375)scale(0.12 -0.12)">
      <use xlink:href="#DejaVuSans-72"/>
      <use x="75.195312" xlink:href="#DejaVuSans-51"/>
      <use x="138.818359" xlink:href="#DejaVuSans-65"/>
     </g>
    </g>
   </g>
  </g>
 </g>
 <defs>
  <clipPath id="p4cd1c0df34">
   <rect height="266.112" width="357.12" x="73.352" y="7.2"/>
  </clipPath>
 </defs>
</svg>
