<?xml version="1.0" encoding="utf-8" standalone="no"?>
<!DOCTYPE svg PUBLIC "-//W3C//DTD SVG 1.1//EN"
  "http://www.w3.org/Graphics/SVG/1.1/DTD/svg11.dtd">
<!-- Created with matplotlib (https://matplotlib.org/) -->
<svg height="276.183875pt" version="1.1" viewBox="0 0 406.199 276.183875" width="406.199pt" xmlns="http://www.w3.org/2000/svg" xmlns:xlink="http://www.w3.org/1999/xlink">
 <metadata>
  <rdf:RDF xmlns:cc="http://creativecommons.org/ns#" xmlns:dc="http://purl.org/dc/elements/1.1/" xmlns:rdf="http://www.w3.org/1999/02/22-rdf-syntax-ns#">
   <cc:Work>
    <dc:type rdf:resource="http://purl.org/dc/dcmitype/StillImage"/>
    <dc:date>2022-06-14T19:47:02.758288</dc:date>
    <dc:format>image/svg+xml</dc:format>
    <dc:creator>
     <cc:Agent>
      <dc:title>Matplotlib v3.3.4, https://matplotlib.org/</dc:title>
     </cc:Agent>
    </dc:creator>
   </cc:Work>
  </rdf:RDF>
 </metadata>
 <defs>
  <style type="text/css">*{stroke-linecap:butt;stroke-linejoin:round;}</style>
 </defs>
 <g id="figure_1">
  <g id="patch_1">
   <path d="M 0 276.183875 
L 406.199 276.183875 
L 406.199 0 
L 0 0 
z
" style="fill:#ffffff;"/>
  </g>
  <g id="axes_1">
   <g id="patch_2">
    <path d="M 55.037 230.110875 
L 389.837 230.110875 
L 389.837 12.670875 
L 55.037 12.670875 
z
" style="fill:#ffffff;"/>
   </g>
   <g id="matplotlib.axis_1">
    <g id="xtick_1">
     <g id="line2d_1">
      <defs>
       <path d="M 0 0 
L 0 3.5 
" id="m6ea7012897" style="stroke:#000000;stroke-width:0.8;"/>
      </defs>
      <g>
       <use style="stroke:#000000;stroke-width:0.8;" x="55.037" xlink:href="#m6ea7012897" y="230.110875"/>
      </g>
     </g>
     <g id="text_1">
      <!-- 0 -->
      <g transform="translate(50.456 248.052625)scale(0.144 -0.144)">
       <defs>
        <path d="M 31.78125 66.40625 
Q 24.171875 66.40625 20.328125 58.90625 
Q 16.5 51.421875 16.5 36.375 
Q 16.5 21.390625 20.328125 13.890625 
Q 24.171875 6.390625 31.78125 6.390625 
Q 39.453125 6.390625 43.28125 13.890625 
Q 47.125 21.390625 47.125 36.375 
Q 47.125 51.421875 43.28125 58.90625 
Q 39.453125 66.40625 31.78125 66.40625 
z
M 31.78125 74.21875 
Q 44.046875 74.21875 50.515625 64.515625 
Q 56.984375 54.828125 56.984375 36.375 
Q 56.984375 17.96875 50.515625 8.265625 
Q 44.046875 -1.421875 31.78125 -1.421875 
Q 19.53125 -1.421875 13.0625 8.265625 
Q 6.59375 17.96875 6.59375 36.375 
Q 6.59375 54.828125 13.0625 64.515625 
Q 19.53125 74.21875 31.78125 74.21875 
z
" id="DejaVuSans-48"/>
       </defs>
       <use xlink:href="#DejaVuSans-48"/>
      </g>
     </g>
    </g>
    <g id="xtick_2">
     <g id="line2d_2">
      <g>
       <use style="stroke:#000000;stroke-width:0.8;" x="102.865571" xlink:href="#m6ea7012897" y="230.110875"/>
      </g>
     </g>
     <g id="text_2">
      <!-- 2 -->
      <g transform="translate(98.284571 248.052625)scale(0.144 -0.144)">
       <defs>
        <path d="M 19.1875 8.296875 
L 53.609375 8.296875 
L 53.609375 0 
L 7.328125 0 
L 7.328125 8.296875 
Q 12.9375 14.109375 22.625 23.890625 
Q 32.328125 33.6875 34.8125 36.53125 
Q 39.546875 41.84375 41.421875 45.53125 
Q 43.3125 49.21875 43.3125 52.78125 
Q 43.3125 58.59375 39.234375 62.25 
Q 35.15625 65.921875 28.609375 65.921875 
Q 23.96875 65.921875 18.8125 64.3125 
Q 13.671875 62.703125 7.8125 59.421875 
L 7.8125 69.390625 
Q 13.765625 71.78125 18.9375 73 
Q 24.125 74.21875 28.421875 74.21875 
Q 39.75 74.21875 46.484375 68.546875 
Q 53.21875 62.890625 53.21875 53.421875 
Q 53.21875 48.921875 51.53125 44.890625 
Q 49.859375 40.875 45.40625 35.40625 
Q 44.1875 33.984375 37.640625 27.21875 
Q 31.109375 20.453125 19.1875 8.296875 
z
" id="DejaVuSans-50"/>
       </defs>
       <use xlink:href="#DejaVuSans-50"/>
      </g>
     </g>
    </g>
    <g id="xtick_3">
     <g id="line2d_3">
      <g>
       <use style="stroke:#000000;stroke-width:0.8;" x="150.694143" xlink:href="#m6ea7012897" y="230.110875"/>
      </g>
     </g>
     <g id="text_3">
      <!-- 4 -->
      <g transform="translate(146.113143 248.052625)scale(0.144 -0.144)">
       <defs>
        <path d="M 37.796875 64.3125 
L 12.890625 25.390625 
L 37.796875 25.390625 
z
M 35.203125 72.90625 
L 47.609375 72.90625 
L 47.609375 25.390625 
L 58.015625 25.390625 
L 58.015625 17.1875 
L 47.609375 17.1875 
L 47.609375 0 
L 37.796875 0 
L 37.796875 17.1875 
L 4.890625 17.1875 
L 4.890625 26.703125 
z
" id="DejaVuSans-52"/>
       </defs>
       <use xlink:href="#DejaVuSans-52"/>
      </g>
     </g>
    </g>
    <g id="xtick_4">
     <g id="line2d_4">
      <g>
       <use style="stroke:#000000;stroke-width:0.8;" x="198.522714" xlink:href="#m6ea7012897" y="230.110875"/>
      </g>
     </g>
     <g id="text_4">
      <!-- 6 -->
      <g transform="translate(193.941714 248.052625)scale(0.144 -0.144)">
       <defs>
        <path d="M 33.015625 40.375 
Q 26.375 40.375 22.484375 35.828125 
Q 18.609375 31.296875 18.609375 23.390625 
Q 18.609375 15.53125 22.484375 10.953125 
Q 26.375 6.390625 33.015625 6.390625 
Q 39.65625 6.390625 43.53125 10.953125 
Q 47.40625 15.53125 47.40625 23.390625 
Q 47.40625 31.296875 43.53125 35.828125 
Q 39.65625 40.375 33.015625 40.375 
z
M 52.59375 71.296875 
L 52.59375 62.3125 
Q 48.875 64.0625 45.09375 64.984375 
Q 41.3125 65.921875 37.59375 65.921875 
Q 27.828125 65.921875 22.671875 59.328125 
Q 17.53125 52.734375 16.796875 39.40625 
Q 19.671875 43.65625 24.015625 45.921875 
Q 28.375 48.1875 33.59375 48.1875 
Q 44.578125 48.1875 50.953125 41.515625 
Q 57.328125 34.859375 57.328125 23.390625 
Q 57.328125 12.15625 50.6875 5.359375 
Q 44.046875 -1.421875 33.015625 -1.421875 
Q 20.359375 -1.421875 13.671875 8.265625 
Q 6.984375 17.96875 6.984375 36.375 
Q 6.984375 53.65625 15.1875 63.9375 
Q 23.390625 74.21875 37.203125 74.21875 
Q 40.921875 74.21875 44.703125 73.484375 
Q 48.484375 72.75 52.59375 71.296875 
z
" id="DejaVuSans-54"/>
       </defs>
       <use xlink:href="#DejaVuSans-54"/>
      </g>
     </g>
    </g>
    <g id="xtick_5">
     <g id="line2d_5">
      <g>
       <use style="stroke:#000000;stroke-width:0.8;" x="246.351286" xlink:href="#m6ea7012897" y="230.110875"/>
      </g>
     </g>
     <g id="text_5">
      <!-- 8 -->
      <g transform="translate(241.770286 248.052625)scale(0.144 -0.144)">
       <defs>
        <path d="M 31.78125 34.625 
Q 24.75 34.625 20.71875 30.859375 
Q 16.703125 27.09375 16.703125 20.515625 
Q 16.703125 13.921875 20.71875 10.15625 
Q 24.75 6.390625 31.78125 6.390625 
Q 38.8125 6.390625 42.859375 10.171875 
Q 46.921875 13.96875 46.921875 20.515625 
Q 46.921875 27.09375 42.890625 30.859375 
Q 38.875 34.625 31.78125 34.625 
z
M 21.921875 38.8125 
Q 15.578125 40.375 12.03125 44.71875 
Q 8.5 49.078125 8.5 55.328125 
Q 8.5 64.0625 14.71875 69.140625 
Q 20.953125 74.21875 31.78125 74.21875 
Q 42.671875 74.21875 48.875 69.140625 
Q 55.078125 64.0625 55.078125 55.328125 
Q 55.078125 49.078125 51.53125 44.71875 
Q 48 40.375 41.703125 38.8125 
Q 48.828125 37.15625 52.796875 32.3125 
Q 56.78125 27.484375 56.78125 20.515625 
Q 56.78125 9.90625 50.3125 4.234375 
Q 43.84375 -1.421875 31.78125 -1.421875 
Q 19.734375 -1.421875 13.25 4.234375 
Q 6.78125 9.90625 6.78125 20.515625 
Q 6.78125 27.484375 10.78125 32.3125 
Q 14.796875 37.15625 21.921875 38.8125 
z
M 18.3125 54.390625 
Q 18.3125 48.734375 21.84375 45.5625 
Q 25.390625 42.390625 31.78125 42.390625 
Q 38.140625 42.390625 41.71875 45.5625 
Q 45.3125 48.734375 45.3125 54.390625 
Q 45.3125 60.0625 41.71875 63.234375 
Q 38.140625 66.40625 31.78125 66.40625 
Q 25.390625 66.40625 21.84375 63.234375 
Q 18.3125 60.0625 18.3125 54.390625 
z
" id="DejaVuSans-56"/>
       </defs>
       <use xlink:href="#DejaVuSans-56"/>
      </g>
     </g>
    </g>
    <g id="xtick_6">
     <g id="line2d_6">
      <g>
       <use style="stroke:#000000;stroke-width:0.8;" x="294.179857" xlink:href="#m6ea7012897" y="230.110875"/>
      </g>
     </g>
     <g id="text_6">
      <!-- 10 -->
      <g transform="translate(285.017857 248.052625)scale(0.144 -0.144)">
       <defs>
        <path d="M 12.40625 8.296875 
L 28.515625 8.296875 
L 28.515625 63.921875 
L 10.984375 60.40625 
L 10.984375 69.390625 
L 28.421875 72.90625 
L 38.28125 72.90625 
L 38.28125 8.296875 
L 54.390625 8.296875 
L 54.390625 0 
L 12.40625 0 
z
" id="DejaVuSans-49"/>
       </defs>
       <use xlink:href="#DejaVuSans-49"/>
       <use x="63.623047" xlink:href="#DejaVuSans-48"/>
      </g>
     </g>
    </g>
    <g id="xtick_7">
     <g id="line2d_7">
      <g>
       <use style="stroke:#000000;stroke-width:0.8;" x="342.008429" xlink:href="#m6ea7012897" y="230.110875"/>
      </g>
     </g>
     <g id="text_7">
      <!-- 12 -->
      <g transform="translate(332.846429 248.052625)scale(0.144 -0.144)">
       <use xlink:href="#DejaVuSans-49"/>
       <use x="63.623047" xlink:href="#DejaVuSans-50"/>
      </g>
     </g>
    </g>
    <g id="xtick_8">
     <g id="line2d_8">
      <g>
       <use style="stroke:#000000;stroke-width:0.8;" x="389.837" xlink:href="#m6ea7012897" y="230.110875"/>
      </g>
     </g>
     <g id="text_8">
      <!-- 14 -->
      <g transform="translate(380.675 248.052625)scale(0.144 -0.144)">
       <use xlink:href="#DejaVuSans-49"/>
       <use x="63.623047" xlink:href="#DejaVuSans-52"/>
      </g>
     </g>
    </g>
    <g id="text_9">
     <!-- $\mathregular{pH}$ -->
     <g transform="translate(212.429 265.959875)scale(0.144 -0.144)">
      <defs>
       <path d="M 18.109375 8.203125 
L 18.109375 -20.796875 
L 9.078125 -20.796875 
L 9.078125 54.6875 
L 18.109375 54.6875 
L 18.109375 46.390625 
Q 20.953125 51.265625 25.265625 53.625 
Q 29.59375 56 35.59375 56 
Q 45.5625 56 51.78125 48.09375 
Q 58.015625 40.1875 58.015625 27.296875 
Q 58.015625 14.40625 51.78125 6.484375 
Q 45.5625 -1.421875 35.59375 -1.421875 
Q 29.59375 -1.421875 25.265625 0.953125 
Q 20.953125 3.328125 18.109375 8.203125 
z
M 48.6875 27.296875 
Q 48.6875 37.203125 44.609375 42.84375 
Q 40.53125 48.484375 33.40625 48.484375 
Q 26.265625 48.484375 22.1875 42.84375 
Q 18.109375 37.203125 18.109375 27.296875 
Q 18.109375 17.390625 22.1875 11.75 
Q 26.265625 6.109375 33.40625 6.109375 
Q 40.53125 6.109375 44.609375 11.75 
Q 48.6875 17.390625 48.6875 27.296875 
z
" id="DejaVuSans-112"/>
       <path d="M 9.8125 72.90625 
L 19.671875 72.90625 
L 19.671875 43.015625 
L 55.515625 43.015625 
L 55.515625 72.90625 
L 65.375 72.90625 
L 65.375 0 
L 55.515625 0 
L 55.515625 34.71875 
L 19.671875 34.71875 
L 19.671875 0 
L 9.8125 0 
z
" id="DejaVuSans-72"/>
      </defs>
      <use transform="translate(0 0.09375)" xlink:href="#DejaVuSans-112"/>
      <use transform="translate(63.476562 0.09375)" xlink:href="#DejaVuSans-72"/>
     </g>
    </g>
   </g>
   <g id="matplotlib.axis_2">
    <g id="ytick_1">
     <g id="line2d_9">
      <defs>
       <path d="M 0 0 
L -3.5 0 
" id="mbd5950f71a" style="stroke:#000000;stroke-width:0.8;"/>
      </defs>
      <g>
       <use style="stroke:#000000;stroke-width:0.8;" x="55.037" xlink:href="#mbd5950f71a" y="230.110875"/>
      </g>
     </g>
     <g id="text_10">
      <!-- 0.0 -->
      <g transform="translate(25.1365 235.58175)scale(0.144 -0.144)">
       <defs>
        <path d="M 10.6875 12.40625 
L 21 12.40625 
L 21 0 
L 10.6875 0 
z
" id="DejaVuSans-46"/>
       </defs>
       <use xlink:href="#DejaVuSans-48"/>
       <use x="63.623047" xlink:href="#DejaVuSans-46"/>
       <use x="95.410156" xlink:href="#DejaVuSans-48"/>
      </g>
     </g>
    </g>
    <g id="ytick_2">
     <g id="line2d_10">
      <g>
       <use style="stroke:#000000;stroke-width:0.8;" x="55.037" xlink:href="#mbd5950f71a" y="186.622875"/>
      </g>
     </g>
     <g id="text_11">
      <!-- 0.2 -->
      <g transform="translate(25.1365 192.09375)scale(0.144 -0.144)">
       <use xlink:href="#DejaVuSans-48"/>
       <use x="63.623047" xlink:href="#DejaVuSans-46"/>
       <use x="95.410156" xlink:href="#DejaVuSans-50"/>
      </g>
     </g>
    </g>
    <g id="ytick_3">
     <g id="line2d_11">
      <g>
       <use style="stroke:#000000;stroke-width:0.8;" x="55.037" xlink:href="#mbd5950f71a" y="143.134875"/>
      </g>
     </g>
     <g id="text_12">
      <!-- 0.4 -->
      <g transform="translate(25.1365 148.60575)scale(0.144 -0.144)">
       <use xlink:href="#DejaVuSans-48"/>
       <use x="63.623047" xlink:href="#DejaVuSans-46"/>
       <use x="95.410156" xlink:href="#DejaVuSans-52"/>
      </g>
     </g>
    </g>
    <g id="ytick_4">
     <g id="line2d_12">
      <g>
       <use style="stroke:#000000;stroke-width:0.8;" x="55.037" xlink:href="#mbd5950f71a" y="99.646875"/>
      </g>
     </g>
     <g id="text_13">
      <!-- 0.6 -->
      <g transform="translate(25.1365 105.11775)scale(0.144 -0.144)">
       <use xlink:href="#DejaVuSans-48"/>
       <use x="63.623047" xlink:href="#DejaVuSans-46"/>
       <use x="95.410156" xlink:href="#DejaVuSans-54"/>
      </g>
     </g>
    </g>
    <g id="ytick_5">
     <g id="line2d_13">
      <g>
       <use style="stroke:#000000;stroke-width:0.8;" x="55.037" xlink:href="#mbd5950f71a" y="56.158875"/>
      </g>
     </g>
     <g id="text_14">
      <!-- 0.8 -->
      <g transform="translate(25.1365 61.62975)scale(0.144 -0.144)">
       <use xlink:href="#DejaVuSans-48"/>
       <use x="63.623047" xlink:href="#DejaVuSans-46"/>
       <use x="95.410156" xlink:href="#DejaVuSans-56"/>
      </g>
     </g>
    </g>
    <g id="ytick_6">
     <g id="line2d_14">
      <g>
       <use style="stroke:#000000;stroke-width:0.8;" x="55.037" xlink:href="#mbd5950f71a" y="12.670875"/>
      </g>
     </g>
     <g id="text_15">
      <!-- 1.0 -->
      <g transform="translate(25.1365 18.14175)scale(0.144 -0.144)">
       <use xlink:href="#DejaVuSans-49"/>
       <use x="63.623047" xlink:href="#DejaVuSans-46"/>
       <use x="95.410156" xlink:href="#DejaVuSans-48"/>
      </g>
     </g>
    </g>
    <g id="text_16">
     <!-- $\delta$ -->
     <g transform="translate(18.14175 125.854875)rotate(-90)scale(0.144 -0.144)">
      <defs>
       <path d="M 54.25 63.328125 
Q 49.953125 66.75 38.28125 66.75 
Q 25.921875 66.75 24.8125 61.03125 
Q 23.921875 56.546875 36.375 54.203125 
Q 46.140625 52.390625 50.828125 46.921875 
Q 56.5 40.328125 53.859375 26.8125 
Q 51.3125 13.875 43.171875 6.25 
Q 34.96875 -1.421875 23.25 -1.421875 
Q 11.578125 -1.421875 6.34375 6.25 
Q 1.125 13.875 3.765625 27.296875 
Q 5.671875 37.25 13.921875 45.3125 
Q 17.140625 48.4375 21.140625 50.203125 
Q 14.265625 54.046875 15.625 60.9375 
Q 18.21875 74.21875 39.75 74.21875 
Q 50.53125 74.21875 55.71875 70.796875 
z
M 27.390625 47.75 
Q 23.828125 46.34375 20.40625 42.78125 
Q 15.140625 37.25 13.234375 27.296875 
Q 11.28125 17.390625 14.359375 11.8125 
Q 17.484375 6.203125 24.75 6.203125 
Q 31.9375 6.203125 37.203125 11.859375 
Q 42.53125 17.53125 44.34375 26.8125 
Q 46.1875 36.53125 42.671875 41.21875 
Q 38.921875 46.234375 32.859375 46.78125 
Q 29.78125 47.078125 27.390625 47.75 
z
" id="DejaVuSans-Oblique-948"/>
      </defs>
      <use transform="translate(0 0.78125)" xlink:href="#DejaVuSans-Oblique-948"/>
     </g>
    </g>
   </g>
   <g id="line2d_15">
    <path clip-path="url(#p8608a07db2)" d="M 55.037 230.110875 
L 224.669 230.004126 
L 235.829 229.763611 
L 242.525 229.431438 
L 248.105 228.935481 
L 252.569 228.297896 
L 255.917 227.607893 
L 259.265 226.6626 
L 261.497 225.846889 
L 263.729 224.844196 
L 265.961 223.614119 
L 268.193 222.108788 
L 270.425 220.272118 
L 272.657 218.039349 
L 274.889 215.337077 
L 277.121 212.084085 
L 279.353 208.193347 
L 281.585 203.575621 
L 283.817 198.145014 
L 286.049 191.826774 
L 288.281 184.567174 
L 290.513 176.34485 
L 292.745 167.182188 
L 294.977 157.154647 
L 298.325 140.798591 
L 309.485 84.158784 
L 311.717 74.248804 
L 313.949 65.218069 
L 316.181 57.13398 
L 318.413 50.011978 
L 320.645 43.825326 
L 322.877 38.516597 
L 325.109 34.008872 
L 327.341 30.215351 
L 329.573 27.046816 
L 331.805 24.416898 
L 334.037 22.245412 
L 336.269 20.460168 
L 338.501 18.997665 
L 340.733 17.803038 
L 342.965 16.829538 
L 345.197 16.037769 
L 348.545 15.120425 
L 351.893 14.450943 
L 356.357 13.83236 
L 361.937 13.351089 
L 368.633 13.028388 
L 378.677 12.806936 
L 389.837 12.717353 
L 389.837 12.717353 
" style="fill:none;stroke:#1f77b4;stroke-linecap:square;stroke-width:1.5;"/>
   </g>
   <g id="line2d_16">
    <path clip-path="url(#p8608a07db2)" d="M 55.037 230.110778 
L 127.577 230.00605 
L 139.853 229.769428 
L 147.665 229.387729 
L 153.245 228.876255 
L 157.709 228.219064 
L 161.057 227.508063 
L 164.405 226.53428 
L 166.637 225.694216 
L 168.869 224.661868 
L 171.101 223.395825 
L 173.333 221.847092 
L 175.565 219.958375 
L 177.797 217.663672 
L 180.029 214.888402 
L 182.261 211.550377 
L 184.493 207.562004 
L 186.725 202.834142 
L 188.957 197.281972 
L 191.189 190.833109 
L 193.421 183.437748 
L 195.653 175.080115 
L 197.885 165.789708 
L 200.117 155.650132 
L 203.465 139.173465 
L 213.509 87.904838 
L 215.741 77.716572 
L 217.973 68.372101 
L 220.205 59.959676 
L 222.437 52.513127 
L 224.669 46.020446 
L 226.901 40.43498 
L 229.133 35.686972 
L 231.365 31.693905 
L 233.597 28.368838 
L 235.829 25.626541 
L 238.061 23.387599 
L 240.293 21.580864 
L 242.525 20.144685 
L 244.757 19.027302 
L 246.989 18.186729 
L 249.221 17.590382 
L 251.453 17.214618 
L 253.685 17.044316 
L 255.917 17.072563 
L 258.149 17.300508 
L 260.381 17.737387 
L 262.613 18.400718 
L 264.845 19.316652 
L 267.077 20.520414 
L 269.309 22.05675 
L 271.541 23.980254 
L 273.773 26.355358 
L 276.005 29.255744 
L 278.237 32.762804 
L 280.469 36.962757 
L 282.701 41.942001 
L 284.933 47.780355 
L 287.165 54.542104 
L 289.397 62.2652 
L 291.629 70.949628 
L 293.861 80.546711 
L 296.093 90.951727 
L 299.441 107.704772 
L 308.369 153.379399 
L 310.601 163.684488 
L 312.833 173.165857 
L 315.065 181.727589 
L 317.297 189.329203 
L 319.529 195.977675 
L 321.761 201.716502 
L 323.993 206.614147 
L 326.225 210.753521 
L 328.457 214.223409 
L 330.689 217.112123 
L 332.921 219.503244 
L 335.153 221.473103 
L 337.385 223.089574 
L 339.617 224.411795 
L 341.849 225.490489 
L 344.081 226.368621 
L 347.429 227.386933 
L 350.777 228.130718 
L 355.241 228.818415 
L 359.705 229.268214 
L 365.285 229.617679 
L 373.097 229.878133 
L 385.373 230.039448 
L 389.837 230.064397 
L 389.837 230.064397 
" style="fill:none;stroke:#ff7f0e;stroke-linecap:square;stroke-width:1.5;"/>
   </g>
   <g id="line2d_17">
    <path clip-path="url(#p8608a07db2)" d="M 55.037 12.670972 
L 127.577 12.7757 
L 139.853 13.012322 
L 147.665 13.394021 
L 153.245 13.905495 
L 157.709 14.562688 
L 161.057 15.27369 
L 164.405 16.247477 
L 166.637 17.087543 
L 168.869 18.119897 
L 171.101 19.385947 
L 173.333 20.934692 
L 175.565 22.823427 
L 177.797 25.118157 
L 180.029 27.893468 
L 182.261 31.231554 
L 184.493 35.220019 
L 186.725 39.948018 
L 188.957 45.500389 
L 191.189 51.949547 
L 193.421 59.345338 
L 195.653 67.703588 
L 197.885 76.994872 
L 200.117 87.135679 
L 203.465 103.615131 
L 213.509 154.905069 
L 215.741 165.102587 
L 217.973 174.45887 
L 220.205 182.886269 
L 222.437 190.351692 
L 224.669 196.868054 
L 226.901 202.483128 
L 229.133 207.268058 
L 231.365 211.307081 
L 233.597 214.689264 
L 235.829 217.502473 
L 238.061 219.829385 
L 240.293 221.745182 
L 242.525 223.316502 
L 244.757 224.601262 
L 246.989 225.649037 
L 249.221 226.501759 
L 252.569 227.490323 
L 255.917 228.212169 
L 260.381 228.879377 
L 264.845 229.315585 
L 271.541 229.702735 
L 280.469 229.948984 
L 294.977 230.080925 
L 332.921 230.110818 
L 389.837 230.110875 
L 389.837 230.110875 
" style="fill:none;stroke:#2ca02c;stroke-linecap:square;stroke-width:1.5;"/>
   </g>
   <g id="patch_3">
    <path d="M 55.037 230.110875 
L 55.037 12.670875 
" style="fill:none;stroke:#000000;stroke-linecap:square;stroke-linejoin:miter;stroke-width:0.8;"/>
   </g>
   <g id="patch_4">
    <path d="M 389.837 230.110875 
L 389.837 12.670875 
" style="fill:none;stroke:#000000;stroke-linecap:square;stroke-linejoin:miter;stroke-width:0.8;"/>
   </g>
   <g id="patch_5">
    <path d="M 55.037 230.110875 
L 389.837 230.110875 
" style="fill:none;stroke:#000000;stroke-linecap:square;stroke-linejoin:miter;stroke-width:0.8;"/>
   </g>
   <g id="patch_6">
    <path d="M 55.037 12.670875 
L 389.837 12.670875 
" style="fill:none;stroke:#000000;stroke-linecap:square;stroke-linejoin:miter;stroke-width:0.8;"/>
   </g>
   <g id="legend_1">
    <g id="patch_7">
     <path d="M 65.117 87.600375 
L 140.861 87.600375 
Q 143.741 87.600375 143.741 84.720375 
L 143.741 22.750875 
Q 143.741 19.870875 140.861 19.870875 
L 65.117 19.870875 
Q 62.237 19.870875 62.237 22.750875 
L 62.237 84.720375 
Q 62.237 87.600375 65.117 87.600375 
z
" style="fill:#ffffff;opacity:0.8;stroke:#cccccc;stroke-linejoin:miter;"/>
    </g>
    <g id="line2d_18">
     <path d="M 67.997 31.532625 
L 96.797 31.532625 
" style="fill:none;stroke:#1f77b4;stroke-linecap:square;stroke-width:1.5;"/>
    </g>
    <g id="line2d_19"/>
    <g id="text_17">
     <!-- $\mathrm{A}^{2\!-}$ -->
     <g transform="translate(108.317 36.572625)scale(0.144 -0.144)">
      <defs>
       <path d="M 34.1875 63.1875 
L 20.796875 26.90625 
L 47.609375 26.90625 
z
M 28.609375 72.90625 
L 39.796875 72.90625 
L 67.578125 0 
L 57.328125 0 
L 50.6875 18.703125 
L 17.828125 18.703125 
L 11.1875 0 
L 0.78125 0 
z
" id="DejaVuSans-65"/>
       <path d="M 10.59375 35.5 
L 73.1875 35.5 
L 73.1875 27.203125 
L 10.59375 27.203125 
z
" id="DejaVuSans-8722"/>
      </defs>
      <use transform="translate(0 0.765625)" xlink:href="#DejaVuSans-65"/>
      <use transform="translate(69.365234 39.046875)scale(0.7)" xlink:href="#DejaVuSans-50"/>
      <use transform="translate(116.174089 39.046875)scale(0.7)" xlink:href="#DejaVuSans-8722"/>
     </g>
    </g>
    <g id="line2d_20">
     <path d="M 67.997 52.669125 
L 96.797 52.669125 
" style="fill:none;stroke:#ff7f0e;stroke-linecap:square;stroke-width:1.5;"/>
    </g>
    <g id="line2d_21"/>
    <g id="text_18">
     <!-- $\mathrm{H}\mathrm{A}^{-}$ -->
     <g transform="translate(108.317 57.709125)scale(0.144 -0.144)">
      <use transform="translate(0 0.09375)" xlink:href="#DejaVuSans-72"/>
      <use transform="translate(75.195312 0.09375)" xlink:href="#DejaVuSans-65"/>
      <use transform="translate(144.560547 38.375)scale(0.7)" xlink:href="#DejaVuSans-8722"/>
     </g>
    </g>
    <g id="line2d_22">
     <path d="M 67.997 73.805625 
L 96.797 73.805625 
" style="fill:none;stroke:#2ca02c;stroke-linecap:square;stroke-width:1.5;"/>
    </g>
    <g id="line2d_23"/>
    <g id="text_19">
     <!-- $\mathrm{H}_{2}\mathrm{A}^{}$ -->
     <g transform="translate(108.317 78.845625)scale(0.144 -0.144)">
      <use transform="translate(0 0.09375)" xlink:href="#DejaVuSans-72"/>
      <use transform="translate(76.152344 -16.3125)scale(0.7)" xlink:href="#DejaVuSans-50"/>
      <use transform="translate(123.422852 0.09375)" xlink:href="#DejaVuSans-65"/>
     </g>
    </g>
   </g>
  </g>
 </g>
 <defs>
  <clipPath id="p8608a07db2">
   <rect height="217.44" width="334.8" x="55.037" y="12.670875"/>
  </clipPath>
 </defs>
</svg>
